<?xml version="1.0" encoding="UTF-8" standalone="no"?>
<!-- Creator: CorelDRAW X8 -->

<svg
   xmlns:dc="http://purl.org/dc/elements/1.1/"
   xmlns:cc="http://creativecommons.org/ns#"
   xmlns:rdf="http://www.w3.org/1999/02/22-rdf-syntax-ns#"
   xmlns:svg="http://www.w3.org/2000/svg"
   xmlns="http://www.w3.org/2000/svg"
   xmlns:xlink="http://www.w3.org/1999/xlink"
   xmlns:sodipodi="http://sodipodi.sourceforge.net/DTD/sodipodi-0.dtd"
   xmlns:inkscape="http://www.inkscape.org/namespaces/inkscape"
   xml:space="preserve"
   width="2.03789in"
   height="0.581472in"
   version="1.1"
   style="shape-rendering:geometricPrecision; text-rendering:geometricPrecision; image-rendering:optimizeQuality; fill-rule:evenodd; clip-rule:evenodd"
   viewBox="0 0 1135 324"
   id="svg38"
   sodipodi:docname="logo-semat.svg"
   inkscape:version="0.92.3 (2405546, 2018-03-11)"><metadata
   id="metadata42"><rdf:RDF><cc:Work
       rdf:about=""><dc:format>image/svg+xml</dc:format><dc:type
         rdf:resource="http://purl.org/dc/dcmitype/StillImage" /></cc:Work></rdf:RDF></metadata><sodipodi:namedview
   pagecolor="#ffffff"
   bordercolor="#666666"
   borderopacity="1"
   objecttolerance="10"
   gridtolerance="10"
   guidetolerance="10"
   inkscape:pageopacity="0"
   inkscape:pageshadow="2"
   inkscape:window-width="1366"
   inkscape:window-height="705"
   id="namedview40"
   showgrid="false"
   inkscape:zoom="2.8215459"
   inkscape:cx="55.839652"
   inkscape:cy="31.182485"
   inkscape:window-x="-8"
   inkscape:window-y="-8"
   inkscape:window-maximized="1"
   inkscape:current-layer="_2301579272528" />
 <defs
   id="defs4"><linearGradient
   inkscape:collect="always"
   id="linearGradient4583"><stop
     style="stop-color:#d4aa00;stop-opacity:1;"
     offset="0"
     id="stop4579" /><stop
     style="stop-color:#aa8800;stop-opacity:1"
     offset="1"
     id="stop4581" /></linearGradient>
  <style
   type="text/css"
   id="style2">
   <![CDATA[
    .str0 {stroke:white;stroke-width:11.6009;stroke-linecap:round;stroke-linejoin:round}
    .fil0 {fill:none}
    .fil1 {fill:black}
    .fil2 {fill:yellow}
    .fil3 {fill:white;fill-rule:nonzero}
   ]]>
  </style>
 <linearGradient
   inkscape:collect="always"
   xlink:href="#linearGradient4583"
   id="linearGradient4585"
   x1="633.56885"
   y1="65.567505"
   x2="876.33423"
   y2="-338.29816"
   gradientUnits="userSpaceOnUse" /><linearGradient
   gradientUnits="userSpaceOnUse"
   y2="137.092"
   y1="32.567"
   x2="86.535"
   x1="85.915"
   id="b"><stop
     id="stop4591"
     stop-color="#57d163"
     offset="0" /><stop
     id="stop4593"
     stop-color="#23b33a"
     offset="1" /></linearGradient><filter
   color-interpolation-filters="sRGB"
   y="-.057"
   x="-.057"
   height="1.114"
   width="1.115"
   id="a"><feGaussianBlur
     id="feGaussianBlur4596"
     stdDeviation="3.531" /></filter><linearGradient
   inkscape:collect="always"
   xlink:href="#linearGradient4583"
   id="linearGradient4629"
   gradientUnits="userSpaceOnUse"
   x1="633.56885"
   y1="65.567505"
   x2="876.33423"
   y2="-338.29816" /><linearGradient
   inkscape:collect="always"
   xlink:href="#linearGradient4583"
   id="linearGradient4631"
   gradientUnits="userSpaceOnUse"
   x1="633.56885"
   y1="65.567505"
   x2="876.33423"
   y2="-338.29816" /><linearGradient
   inkscape:collect="always"
   xlink:href="#linearGradient4583"
   id="linearGradient4633"
   gradientUnits="userSpaceOnUse"
   x1="633.56885"
   y1="65.567505"
   x2="876.33423"
   y2="-338.29816" /><linearGradient
   inkscape:collect="always"
   xlink:href="#linearGradient4583"
   id="linearGradient4635"
   gradientUnits="userSpaceOnUse"
   x1="633.56885"
   y1="65.567505"
   x2="876.33423"
   y2="-338.29816" /><linearGradient
   inkscape:collect="always"
   xlink:href="#linearGradient4583"
   id="linearGradient4637"
   gradientUnits="userSpaceOnUse"
   x1="633.56885"
   y1="65.567505"
   x2="876.33423"
   y2="-338.29816" /><linearGradient
   inkscape:collect="always"
   xlink:href="#linearGradient4583"
   id="linearGradient4639"
   gradientUnits="userSpaceOnUse"
   x1="633.56885"
   y1="65.567505"
   x2="876.33423"
   y2="-338.29816" /><linearGradient
   inkscape:collect="always"
   xlink:href="#linearGradient4583"
   id="linearGradient4641"
   gradientUnits="userSpaceOnUse"
   x1="633.56885"
   y1="65.567505"
   x2="876.33423"
   y2="-338.29816" /><linearGradient
   inkscape:collect="always"
   xlink:href="#linearGradient4583"
   id="linearGradient4643"
   gradientUnits="userSpaceOnUse"
   x1="633.56885"
   y1="65.567505"
   x2="876.33423"
   y2="-338.29816" /><linearGradient
   inkscape:collect="always"
   xlink:href="#linearGradient4583"
   id="linearGradient4645"
   gradientUnits="userSpaceOnUse"
   x1="633.56885"
   y1="65.567505"
   x2="876.33423"
   y2="-338.29816" /><linearGradient
   inkscape:collect="always"
   xlink:href="#linearGradient4583"
   id="linearGradient4647"
   gradientUnits="userSpaceOnUse"
   x1="633.56885"
   y1="65.567505"
   x2="876.33423"
   y2="-338.29816" /></defs>
 <g
   id="Layer_x0020_1">
  <metadata
   id="CorelCorpID_0Corel-Layer" />
  <g
   id="_2301579272528">
   
   <g
   id="_2301579272368"
   transform="translate(-46.194178,148.8681)">
    
    
    
    
    
    
    
    
    
   <g
   aria-label="Dhea &amp; Azhar "
   transform="skewX(-8.4434599)"
   style="font-style:normal;font-weight:normal;font-size:244.09544373px;line-height:1.25;font-family:sans-serif;letter-spacing:0px;word-spacing:0px;fill:url(#linearGradient4585);fill-opacity:1;stroke:#000000;stroke-width:9.76381874;stroke-linecap:round;stroke-miterlimit:4;stroke-dasharray:none;paint-order:stroke fill markers"
   id="text4554"><path
     d="m 108.53463,-101.95067 q -0.0596,2.979677 -0.17878,8.879445 -0.11919,5.899767 -0.29797,13.766124 -0.17878,7.806764 -0.47675,17.103368 -0.23837,9.23701 -0.53634,18.950769 -0.29797,9.654166 -0.65553,19.248737 -0.35756,9.594572 -0.71512,18.1164592 -0.35756,8.5218868 -0.77472,15.4943397 -0.35756,6.9128591 -0.71512,11.2631931 5.89977,1.549434 10.84604,2.085776 5.00586,0.476749 9.83294,0.476749 10.01173,0 17.87809,-2.502931 7.92595,-2.502932 13.88531,-6.972453 6.01895,-4.529115 10.19051,-10.7268509 4.23114,-6.1977358 6.85326,-13.5873441 2.68172,-7.389608 3.87359,-15.732714 1.25146,-8.343106 1.25146,-17.103367 0,-13.110595 -2.92008,-24.016227 -2.8605,-10.905631 -9.41579,-18.771988 -6.49571,-7.866357 -16.98418,-12.216691 -10.48848,-4.409924 -25.62526,-4.409924 -3.7544,0 -7.56839,0.17878 -3.81399,0.17878 -7.74717,0.47675 z m -35.934947,-1.96659 q 6.316923,-1.19188 12.991408,-2.26456 6.674485,-1.13228 13.468157,-1.96659 6.793672,-0.83431 13.587342,-1.31106 6.85327,-0.53634 13.52775,-0.53634 9.29661,0 17.99727,1.19187 8.76027,1.13228 16.44784,3.93318 7.74717,2.74131 14.18328,7.389607 6.43611,4.588708 11.02482,11.501568 4.6483,6.853265 7.21083,16.269056 2.56252,9.415791 2.56252,21.75167 0,11.084412 -2.20496,21.27492 -2.20496,10.130914 -6.43611,18.8911755 -4.23115,8.76026131 -10.36929,15.911495 -6.07855,7.1512335 -13.94491,12.2762845 -7.80676,5.065457 -17.28214,7.866357 -9.41579,2.741306 -20.26183,2.741306 -5.6018,0 -11.38238,-0.774717 -5.78058,-0.774717 -12.03791,-2.383744 l -11.799539,1.430247 -1.072685,-0.119188 q 0.417156,-3.813991 0.893905,-10.07132 0.476748,-6.316924 0.893904,-14.6600296 0.476749,-8.343106 0.893904,-18.5336144 0.417155,-10.250101 0.715123,-21.990043 0.357562,-11.799536 0.536343,-24.850537 0.178781,-13.051002 0.178781,-27.115095 0,-2.860493 -0.238375,-5.005863 -0.238374,-2.14537 -1.251466,-3.575617 -0.953498,-1.430247 -2.920087,-2.14537 -1.906995,-0.715124 -5.244238,-0.715124 -3.933178,0 -10.071321,0.893904 z"
     style="font-style:normal;font-variant:normal;font-weight:normal;font-stretch:normal;font-family:Gabriola;-inkscape-font-specification:Gabriola;fill:url(#linearGradient4629);fill-opacity:1;stroke:#000000;stroke-width:9.76381874;stroke-linecap:round;stroke-miterlimit:4;stroke-dasharray:none;paint-order:stroke fill markers"
     id="path4558"
     inkscape:connector-curvature="0" /><path
     d="m 228.73495,-3.3232424 q 4.58871,-15.0771846 9.71376,-25.5656606 5.18464,-10.488476 10.48847,-16.98418 5.36343,-6.555298 10.66726,-9.475385 5.30383,-2.920087 10.13091,-2.920087 3.33725,0 6.43612,1.31106 3.09886,1.251466 5.48261,3.933178 2.44334,2.681713 3.87358,6.91286 1.43025,4.231146 1.43025,10.130914 0,1.787808 -0.23838,4.886676 -0.17878,3.039275 -0.47674,6.853266 -0.29797,3.754398 -0.71513,7.925951 -0.35756,4.171553 -0.65553,8.2239184 -0.29797,4.0523658 -0.53634,7.68757628 -0.17878,3.63521042 -0.17878,6.25732952 0,4.6483018 0.35756,7.5683888 0.41716,2.920087 1.31106,4.648302 0.8939,1.668621 2.38375,2.324151 1.48984,0.595936 3.63521,0.595936 3.09886,0 6.43611,-0.83431 3.33724,-0.893905 6.73407,-2.443339 l 1.13228,3.098868 q -2.14537,1.728215 -5.42302,3.516024 -3.27764,1.787808 -6.91286,3.277648 -3.57561,1.489841 -7.15123,2.383745 -3.57562,0.953498 -6.31692,0.953498 -3.21806,0 -5.06546,-1.728215 -1.8474,-1.728215 -2.8009,-4.707896 -0.8939,-2.97968 -1.19187,-6.972452 -0.23838,-3.992773 -0.23838,-8.5814809 0,-5.5422061 0.35757,-11.4419739 0.41715,-5.8997678 0.83431,-11.3227872 0.47675,-5.423018 0.83431,-9.892539 0.41715,-4.529115 0.41715,-7.270421 0,-6.614892 -2.56252,-9.89254 -2.56253,-3.337243 -6.91286,-3.337243 -3.39684,0 -7.27042,2.920087 -3.81399,2.920087 -7.62799,8.045138 -3.75439,5.065457 -7.27042,12.03791 -3.51602,6.91286 -6.31692,15.0175911 -2.8009,8.0451379 -4.6483,16.8649929 -1.8474,8.819855 -2.32415,17.63971 l -12.69344,1.549434 -0.9535,-0.05959 q 0.35756,-7.032046 0.77472,-15.49434 0.47675,-8.5218864 0.95349,-18.0568647 0.53635,-9.5349783 1.07269,-19.8446733 0.59594,-10.369289 1.13228,-21.09614 0.59593,-10.72685 1.19187,-21.632482 0.59594,-10.905631 1.13228,-21.513294 0.59594,-10.667257 1.13228,-20.857767 0.53634,-10.19051 1.01309,-19.48711 0.0596,-1.43025 0.83431,-2.44334 0.77472,-1.07269 1.96659,-1.66862 1.25147,-0.65553 2.8009,-0.9535 1.54943,-0.29797 3.21805,-0.29797 3.57562,0 7.5088,1.907 -1.37065,12.15709 -2.44334,22.3476 -1.07268,10.13092 -1.96659,18.831588 -0.83431,8.641074 -1.54943,16.149869 -0.65553,7.508795 -1.25147,14.421655 -0.53634,6.853265 -1.01309,13.408563 -0.47675,6.555297 -0.9535,13.348969 -0.47675,6.734079 -1.01309,14.064093 -0.47675,7.270421 -1.07268,15.673121 z"
     style="font-style:normal;font-variant:normal;font-weight:normal;font-stretch:normal;font-family:Gabriola;-inkscape-font-specification:Gabriola;fill:url(#linearGradient4631);fill-opacity:1;stroke:#000000;stroke-width:9.76381874;stroke-linecap:round;stroke-miterlimit:4;stroke-dasharray:none;paint-order:stroke fill markers"
     id="path4560"
     inkscape:connector-curvature="0" /><path
     d="m 372.11718,9.8469463 q 0.35757,0.1787807 0.89391,0.5363427 0.59593,0.297968 1.07268,0.715123 0.47675,0.357562 0.83431,0.834311 0.35757,0.417155 0.35757,0.83431 0,0.238375 -0.17878,0.476749 -3.33725,4.648302 -7.21083,8.104732 -3.81399,3.396836 -7.98555,5.720987 -4.11196,2.264557 -8.4027,3.337242 -4.29074,1.132279 -8.46229,1.132279 -7.15123,0 -13.11059,-2.920087 -5.95937,-2.920087 -10.25011,-7.985545 -4.29074,-5.065457 -6.73407,-11.8591287 -2.38375,-6.8532657 -2.38375,-14.6600291 0,-6.3765172 1.37065,-12.7530332 1.43025,-6.376517 4.05237,-12.157098 2.68171,-5.78058 6.4957,-10.72685 3.814,-5.005864 8.64108,-8.641074 4.88667,-3.694804 10.66726,-5.780581 5.84017,-2.085776 12.51465,-2.085776 4.40993,0 8.4027,1.191872 3.99278,1.191872 6.97246,3.45643 3.03927,2.204963 4.82708,5.482612 1.78781,3.277649 1.78781,7.449202 0,6.078549 -3.99277,10.607663 -3.93318,4.529115 -10.90564,7.687577 -6.97245,3.158461 -16.44783,5.12505 -9.41579,1.906996 -20.38102,2.860494 v 1.013091 q 0,7.6279829 1.907,13.94490596 1.96659,6.31692314 5.36342,10.84603804 3.39684,4.469521 7.98555,6.972453 4.5887,2.502931 9.89254,2.502931 5.36342,0 10.96522,-2.622119 5.66139,-2.681712 11.44197,-8.6410737 z M 360.91359,-38.006726 q 0,-2.741306 -0.9535,-5.125051 -0.89391,-2.383744 -2.56253,-4.111959 -1.60903,-1.787808 -3.87358,-2.8009 -2.26456,-1.013091 -4.88668,-1.013091 -3.87358,0 -7.03205,1.370653 -3.15846,1.370653 -5.66139,3.754397 -2.50293,2.324151 -4.40993,5.482613 -1.90699,3.098868 -3.27765,6.614891 -1.31105,3.516023 -2.14537,7.210827 -0.83431,3.694805 -1.19187,7.210828 8.4623,-0.595936 15.13678,-2.026183 6.73408,-1.48984 11.32279,-3.754398 4.6483,-2.324151 7.09164,-5.482612 2.44334,-3.218055 2.44334,-7.330015 z"
     style="font-style:normal;font-variant:normal;font-weight:normal;font-stretch:normal;font-family:Gabriola;-inkscape-font-specification:Gabriola;fill:url(#linearGradient4633);fill-opacity:1;stroke:#000000;stroke-width:9.76381874;stroke-linecap:round;stroke-miterlimit:4;stroke-dasharray:none;paint-order:stroke fill markers"
     id="path4562"
     inkscape:connector-curvature="0" /><path
     d="m 436.83585,-32.941269 q 0,-4.707895 -1.54944,-8.164325 -1.54943,-3.456429 -4.05236,-5.661393 -2.50294,-2.204964 -5.6614,-3.277649 -3.15846,-1.072685 -6.31692,-1.072685 -4.23115,0 -7.15123,0.893904 -2.92009,0.893904 -4.76749,2.443338 -1.78781,1.549434 -2.62212,3.694804 -0.77472,2.085777 -0.77472,4.529115 0,2.860494 1.01309,5.780581 1.07269,2.860493 3.09887,5.601799 l -0.23837,0.65553 q -3.39684,1.668621 -6.85327,1.668621 -2.02618,0 -3.81399,-0.595936 -1.72822,-0.655529 -3.03928,-1.847402 -1.25146,-1.191872 -2.02618,-2.920087 -0.71512,-1.728215 -0.71512,-3.873585 0,-3.516023 1.66862,-6.614891 1.72821,-3.098868 4.52911,-5.661393 2.8009,-2.562526 6.49571,-4.588709 3.6948,-2.026182 7.62798,-3.396836 3.93318,-1.430246 7.86636,-2.14537 3.99277,-0.774717 7.38961,-0.774717 6.25733,0 10.66725,1.668621 4.46952,1.668622 7.21083,4.886677 2.8009,3.158461 4.05237,7.687576 1.31106,4.529115 1.31106,10.250102 0,3.933178 -0.35757,8.641074 -0.29796,4.707895 -0.71512,9.89254 -0.41716,5.125051 -0.77472,10.6076631 -0.29796,5.48261248 -0.29796,10.9056314 0,8.5814805 3.15846,12.9318145 3.21805,4.29074 8.4027,4.29074 4.5887,0 10.2501,-3.396836 l 1.72821,2.562525 q -3.99277,3.992773 -8.70066,6.078549 -4.7079,2.085777 -9.89254,2.085777 -3.87359,0 -7.15124,-1.31106 -3.27765,-1.31106 -5.66139,-3.873585 -2.38375,-2.622119 -3.69481,-6.555297 -1.31106,-3.933179 -1.31106,-9.1178235 0,-1.5494339 0.0596,-3.0988679 0.11919,-1.549434 0.41715,-3.2776488 h -0.35756 q -2.56252,5.1250509 -5.95936,10.1309142 -3.33724,4.94627 -7.38961,8.879449 -3.99277,3.873585 -8.58148,6.257329 -4.52911,2.443338 -9.53498,2.443338 -4.11196,0 -7.50879,-1.430246 -3.39684,-1.430247 -5.84018,-3.933179 -2.38374,-2.502932 -3.75439,-5.899768 -1.31106,-3.456429 -1.31106,-7.508795 0,-5.2442381 1.90699,-9.5349783 1.96659,-4.2907402 5.36343,-7.6875762 3.45643,-3.3968361 8.22392,-5.8401745 4.76749,-2.502932 10.36929,-4.111959 5.6018,-1.668621 11.85912,-2.443338 6.25733,-0.834311 12.75304,-0.834311 0.41715,-3.754398 0.65553,-7.270421 0.29797,-3.516023 0.29797,-7.74717 z M 400.24537,7.9995443 q 0,2.3241507 0.47675,4.4695207 0.53634,2.085777 1.60902,3.694804 1.13228,1.609028 2.8009,2.562526 1.72822,0.893904 4.11196,0.893904 2.68172,0 5.54221,-1.251466 2.86049,-1.251466 5.6018,-3.456429 2.8009,-2.204964 5.30383,-5.2442385 2.56253,-3.098868 4.58871,-6.7340784 2.02618,-3.63521049 3.33724,-7.6279826 1.37065,-4.0523658 1.78781,-8.2835125 -4.40993,0.119187 -8.76026,0.595936 -4.35034,0.417156 -8.28351,1.370653 -3.87359,0.953498 -7.21083,2.5029322 -3.33724,1.5494339 -5.78058,3.8735849 -2.38375,2.2645573 -3.7544,5.42301886 -1.37065,3.09886794 -1.37065,7.21082734 z"
     style="font-style:normal;font-variant:normal;font-weight:normal;font-stretch:normal;font-family:Gabriola;-inkscape-font-specification:Gabriola;fill:url(#linearGradient4635);fill-opacity:1;stroke:#000000;stroke-width:9.76381874;stroke-linecap:round;stroke-miterlimit:4;stroke-dasharray:none;paint-order:stroke fill markers"
     id="path4564"
     inkscape:connector-curvature="0" /><path
     d="m 598.33456,-1.2374659 q 2.56252,-4.8866764 3.6948,-10.1905081 1.19187,-5.303832 1.19187,-10.72685 0,-6.316924 -1.90699,-12.216691 -1.84741,-5.899768 -6.01896,-10.905632 -3.93318,-0.476749 -6.61489,-0.83431 -2.62212,-0.417156 -3.45643,-0.715124 -1.31106,-0.417155 -1.8474,-0.953498 -0.53634,-0.595936 -0.53634,-1.430246 0,-0.774717 0.77471,-1.609028 0.83431,-0.893904 1.96659,-1.668621 1.19187,-0.834311 2.56253,-1.48984 1.37065,-0.715124 2.50293,-1.072686 5.89977,1.489841 10.19051,4.052366 5.24424,0 9.83294,-0.119187 4.58871,-0.119187 8.87945,-0.417155 4.29074,-0.357562 8.52189,-0.834311 4.23115,-0.476749 8.81985,-1.191872 1.07269,2.443338 1.07269,4.052366 0,1.906995 -1.25147,3.039274 -1.19187,1.132279 -3.45643,1.787808 -2.26455,0.595936 -5.42302,0.834311 -3.15846,0.178781 -7.09164,0.178781 -3.09886,0 -6.37651,-0.119187 -3.27765,-0.119188 -6.5553,-0.357562 1.66862,2.324151 2.68171,4.767489 1.01309,2.383745 1.54944,4.648302 0.59593,2.204964 0.77471,4.171553 0.17879,1.906996 0.17879,3.337242 0,7.627983 -2.62212,15.196372 -2.62212,7.5087953 -7.27042,15.0175907 4.82708,4.1119594 9.53497,7.4492013 4.7079,3.337243 8.99864,5.720987 4.29074,2.383745 7.98554,3.694805 3.7544,1.311059 6.5553,1.311059 3.51602,0 5.89977,-0.476749 2.44334,-0.476749 4.94627,-1.311059 l 1.60903,4.648301 q -1.907,0.893905 -4.58871,2.026183 -2.62212,1.132279 -5.6614,2.204964 -3.03927,1.013092 -6.37651,1.728215 -3.27765,0.715123 -6.37652,0.715123 -2.97968,0 -6.5553,-1.191872 -3.57561,-1.132279 -7.62798,-3.218055 -3.99277,-2.14537 -8.4027,-5.184645 -4.35033,-3.039274 -8.87945,-6.793672 -3.75439,3.813992 -8.16432,6.972453 -4.35034,3.158462 -9.11783,5.482613 -4.76748,2.264557 -9.89254,3.516023 -5.06545,1.251466 -10.30969,1.251466 -7.86636,0 -14.8984,-2.622119 -6.97246,-2.622119 -12.21669,-7.508796 -5.18465,-4.94627 -8.28352,-11.9187224 -3.03927,-7.0320464 -3.03927,-15.7923077 0,-7.9259509 2.20496,-14.3024679 2.20497,-6.43611 5.84018,-11.561161 3.6948,-5.184644 8.4027,-9.23701 4.70789,-4.052366 9.77335,-7.330014 -3.45643,-7.687577 -5.42302,-14.83881 -1.96659,-7.210828 -1.96659,-13.885312 0,-6.853266 2.56253,-12.812628 2.62212,-6.018955 6.97245,-10.488474 4.40993,-4.46952 10.13091,-7.03205 5.72099,-2.62212 11.97832,-2.62212 4.94627,0 8.87945,1.48984 3.99277,1.43025 6.79367,4.05237 2.8009,2.62212 4.29074,6.376516 1.48984,3.694804 1.48984,8.164325 0,4.231146 -1.60903,9.23701 -1.60902,4.94627 -5.24423,10.250102 -3.63522,5.303831 -9.47539,10.72685 -5.84017,5.423019 -14.24287,10.488476 3.51602,6.436111 7.92595,12.931815 4.40992,6.495704 9.41579,12.753033 5.00586,6.197736 10.42888,11.978317 5.42302,5.7209865 10.96523,10.7268501 z M 547.32242,-42.952996 q -3.15846,2.622119 -5.78058,5.720987 -2.56252,3.039274 -4.46952,6.674485 -1.8474,3.575617 -2.92009,7.74717 -1.01309,4.171553 -1.01309,8.939042 0,8.8794484 2.74131,15.3751523 2.7413,6.4361104 7.15123,10.6672567 4.46952,4.171553 10.01173,6.197736 5.6018,1.966589 11.32279,1.966589 3.51602,0 6.91286,-0.715123 3.45642,-0.715123 6.67448,-2.026183 3.21806,-1.311059 6.07855,-3.158461 2.92009,-1.847402 5.42302,-4.171553 -5.89977,-5.303832 -11.79954,-11.5015679 -5.89977,-6.2573295 -11.44197,-13.1105951 -5.48261,-6.853266 -10.3097,-14.064093 -4.82708,-7.270421 -8.58148,-14.540842 z m 9.47539,-12.157097 q 5.48261,-3.218055 9.2966,-7.270421 3.87359,-4.052366 6.25733,-8.343106 2.38374,-4.29074 3.45643,-8.462293 1.07268,-4.171553 1.07268,-7.687577 0,-3.277648 -0.95349,-6.078548 -0.89391,-2.860494 -2.56253,-4.94627 -1.66862,-2.145372 -4.11196,-3.337242 -2.38374,-1.19187 -5.30383,-1.19187 -4.11196,0 -6.91286,1.72821 -2.8009,1.668623 -4.52911,4.529117 -1.72822,2.8009 -2.50294,6.43611 -0.77471,3.575617 -0.77471,7.389608 0,6.138142 1.96659,12.991408 2.02618,6.853266 5.6018,14.242874 z"
     style="font-style:normal;font-variant:normal;font-weight:normal;font-stretch:normal;font-family:Gabriola;-inkscape-font-specification:Gabriola;fill:url(#linearGradient4637);fill-opacity:1;stroke:#000000;stroke-width:9.76381874;stroke-linecap:round;stroke-miterlimit:4;stroke-dasharray:none;paint-order:stroke fill markers"
     id="path4566"
     inkscape:connector-curvature="0" /><path
     d="m 705.60302,-4.0979594 q -2.14537,6.0785486 -3.75439,10.6076633 -1.54944,4.4695211 -2.74131,7.8067631 -1.19187,3.337243 -2.08578,5.780581 -0.8939,2.383745 -1.66862,4.350334 -0.9535,2.264557 -2.14537,3.516023 -1.19187,1.251466 -2.56252,1.787808 -1.37066,0.595937 -2.97968,0.65553 -1.60903,0.119187 -3.39684,0.119187 -1.01309,0 -2.50293,-0.05959 -1.54944,0 -2.8009,-0.05959 l -0.83431,-0.595936 q 7.15123,-15.49434 13.52775,-29.61802618 6.43611,-14.12368682 12.39547,-27.05550082 -1.25147,-1.966589 -1.25147,-3.277649 0,-2.383744 3.814,-2.443338 10.90563,-23.956633 19.42751,-42.192279 8.52189,-18.295239 15.01759,-30.571521 0.59594,-1.13228 1.54944,-1.8474 0.9535,-0.77472 2.08577,-1.19187 1.13228,-0.41716 2.38375,-0.59594 1.25147,-0.17878 2.44334,-0.17878 1.72821,0 3.39683,0.29797 1.66862,0.29796 3.57562,1.13228 3.7544,20.678977 6.85327,37.246001 3.15846,16.507432 5.84017,29.439246 2.68171,12.931814 5.06546,22.58598 2.38374,9.5945715 4.58871,16.5074307 2.20496,6.8532656 4.40992,11.3227867 2.20497,4.4695206 4.52912,7.0320466 2.38374,2.562525 5.00586,3.575617 2.62212,1.013091 5.72099,1.013091 2.02618,0 4.11196,-0.476749 2.08577,-0.476749 4.58871,-1.370653 l 1.66862,4.886676 q -6.85327,3.396837 -13.1106,5.184645 -6.25733,1.787808 -11.08441,1.787808 -2.74131,0 -5.18464,-1.013091 -2.38375,-1.013092 -4.64831,-3.45643 -2.20496,-2.502932 -4.35033,-6.674484 -2.08578,-4.171553 -4.23115,-10.4884766 -2.14537,-6.3169231 -4.40992,-15.0175908 -2.26456,-8.7602616 -4.76749,-20.3214226 -11.02482,0.119187 -21.81127,0.536343 -10.72685,0.357561 -22.22841,1.013091 -2.32416,6.138142 -4.23115,11.263193 -1.8474,5.1250511 -3.21806,9.0582296 z M 755.54247,-33.29883 q -1.25146,-5.899768 -2.68171,-13.051002 -1.43025,-7.210827 -2.92009,-15.196371 -1.48984,-8.045138 -3.03927,-16.745806 -1.54944,-8.700668 -3.03928,-17.63971 h -0.35756 q -8.58148,17.758897 -15.31556,33.789579 -6.73407,16.030683 -11.97831,29.498839 10.2501,-0.238374 19.84467,-0.357561 9.59457,-0.178781 19.48711,-0.297968 z"
     style="font-style:normal;font-variant:normal;font-weight:normal;font-stretch:normal;font-family:Gabriola;-inkscape-font-specification:Gabriola;fill:url(#linearGradient4639);fill-opacity:1;stroke:#000000;stroke-width:9.76381874;stroke-linecap:round;stroke-miterlimit:4;stroke-dasharray:none;paint-order:stroke fill markers"
     id="path4568"
     inkscape:connector-curvature="0" /><path
     d="m 801.90635,27.54625 q 1.37065,-2.383745 4.11196,-6.138143 2.8009,-3.813991 6.4957,-8.521886 3.69481,-4.7078959 8.04514,-10.0117275 4.40993,-5.3634253 8.99864,-10.7864442 4.58871,-5.4230193 9.17742,-10.6672573 4.5887,-5.303831 8.64107,-9.832946 4.05236,-4.588708 7.38961,-8.164325 3.33724,-3.635211 5.42302,-5.720987 l -0.35757,-0.417155 q -2.50293,0.536342 -5.48261,0.83431 -2.92009,0.238375 -5.6018,0.238375 -4.05236,0 -7.74717,-0.297968 -3.6948,-0.297968 -6.79367,-0.65553 -3.03927,-0.357562 -5.36342,-0.65553 -2.32416,-0.297968 -3.57562,-0.297968 -2.56253,0 -4.6483,0.715123 -2.08578,0.715124 -3.63521,2.443339 -1.54944,1.668621 -2.56253,4.529114 -0.9535,2.860494 -1.31106,7.151234 l -4.52911,-0.119187 q 0.0596,-3.218055 0.11918,-6.495704 0.11919,-3.337243 0.53635,-6.376517 0.47674,-3.098868 1.37065,-5.780581 0.8939,-2.741306 2.56252,-4.707895 1.72822,-2.026183 4.35034,-3.158462 2.62212,-1.191872 6.43611,-1.191872 3.09887,0 6.97245,0.417155 3.93318,0.417156 8.22392,0.893905 4.35033,0.476749 8.87945,0.893904 4.52911,0.417155 8.81985,0.417155 4.64831,0 8.81986,-0.715123 4.23115,-0.715124 7.09164,-2.443338 l 3.33724,2.741306 q -1.19187,2.622119 -3.63521,6.376517 -2.44334,3.694804 -5.78058,8.223918 -3.27765,4.469521 -7.33001,9.534979 -3.99278,5.065457 -8.34311,10.250101 -4.29074,5.184645 -8.76026,10.3692891 -4.40993,5.1846444 -8.64108,9.89253995 -4.17155,4.70789555 -7.92595,8.81985495 -3.75439,4.111959 -6.67448,7.151234 l 0.47675,0.417155 q 1.13228,-0.476749 2.56252,-0.893904 1.48984,-0.417156 3.03928,-0.715124 1.54943,-0.297968 3.03927,-0.417155 1.54944,-0.178781 2.8009,-0.178781 3.7544,0 7.4492,0.595936 3.7544,0.536343 7.21083,1.191873 3.51602,0.655529 6.73408,1.251466 3.21805,0.536342 6.07855,0.536342 2.68171,0 4.94627,-0.715123 2.32415,-0.715124 4.11196,-2.502932 1.78781,-1.847402 2.97968,-4.9462701 1.19187,-3.0988679 1.66862,-7.9259507 l 4.40993,0.3575617 q -0.11919,8.5814801 -1.43025,14.1832801 -1.31106,5.6018 -3.63521,8.879449 -2.32415,3.218055 -5.48261,4.469521 -3.15846,1.311059 -6.91286,1.311059 -3.93318,0 -8.4027,-1.013091 -4.40993,-0.953498 -9.17742,-2.14537 -4.70789,-1.191873 -9.59457,-2.14537 -4.88668,-1.013092 -9.65417,-1.013092 -4.46952,0 -8.64107,1.191872 -4.11196,1.191873 -7.92595,4.231147 z"
     style="font-style:normal;font-variant:normal;font-weight:normal;font-stretch:normal;font-family:Gabriola;-inkscape-font-specification:Gabriola;fill:url(#linearGradient4641);fill-opacity:1;stroke:#000000;stroke-width:9.76381874;stroke-linecap:round;stroke-miterlimit:4;stroke-dasharray:none;paint-order:stroke fill markers"
     id="path4570"
     inkscape:connector-curvature="0" /><path
     d="m 905.24166,-3.3232424 q 4.58871,-15.0771846 9.71376,-25.5656606 5.18465,-10.488476 10.48848,-16.98418 5.36342,-6.555298 10.66725,-9.475385 5.30384,-2.920087 10.13092,-2.920087 3.33724,0 6.43611,1.31106 3.09887,1.251466 5.48261,3.933178 2.44334,2.681713 3.87359,6.91286 1.43024,4.231146 1.43024,10.130914 0,1.787808 -0.23837,4.886676 -0.17878,3.039275 -0.47675,6.853266 -0.29797,3.754398 -0.71512,7.925951 -0.35757,4.171553 -0.65553,8.2239184 -0.29797,4.0523658 -0.53635,7.68757628 -0.17878,3.63521042 -0.17878,6.25732952 0,4.6483018 0.35757,7.5683888 0.41715,2.920087 1.31105,4.648302 0.89391,1.668621 2.38375,2.324151 1.48984,0.595936 3.63521,0.595936 3.09887,0 6.43611,-0.83431 3.33724,-0.893905 6.73408,-2.443339 l 1.13228,3.098868 q -2.14537,1.728215 -5.42302,3.516024 -3.27765,1.787808 -6.91286,3.277648 -3.57562,1.489841 -7.15123,2.383745 -3.57562,0.953498 -6.31693,0.953498 -3.21805,0 -5.06546,-1.728215 -1.8474,-1.728215 -2.8009,-4.707896 -0.8939,-2.97968 -1.19187,-6.972452 -0.23837,-3.992773 -0.23837,-8.5814809 0,-5.5422061 0.35756,-11.4419739 0.41716,-5.8997678 0.83431,-11.3227872 0.47675,-5.423018 0.83431,-9.892539 0.41716,-4.529115 0.41716,-7.270421 0,-6.614892 -2.56253,-9.89254 -2.56252,-3.337243 -6.91286,-3.337243 -3.39683,0 -7.27042,2.920087 -3.81399,2.920087 -7.62798,8.045138 -3.7544,5.065457 -7.27042,12.03791 -3.51603,6.91286 -6.31693,15.0175911 -2.8009,8.0451379 -4.6483,16.8649929 -1.8474,8.819855 -2.32415,17.63971 l -12.69344,1.549434 -0.9535,-0.05959 q 0.35757,-7.032046 0.77472,-15.49434 0.47675,-8.5218864 0.9535,-18.0568647 0.53634,-9.5349783 1.07268,-19.8446733 0.59594,-10.369289 1.13228,-21.09614 0.59594,-10.72685 1.19187,-21.632482 0.59594,-10.905631 1.13228,-21.513294 0.59594,-10.667257 1.13228,-20.857767 0.53634,-10.19051 1.01309,-19.48711 0.0596,-1.43025 0.83431,-2.44334 0.77472,-1.07269 1.96659,-1.66862 1.25147,-0.65553 2.8009,-0.9535 1.54944,-0.29797 3.21806,-0.29797 3.57562,0 7.50879,1.907 -1.37065,12.15709 -2.44333,22.3476 -1.07269,10.13092 -1.96659,18.831588 -0.83431,8.641074 -1.54944,16.149869 -0.65553,7.508795 -1.25146,14.421655 -0.53635,6.853265 -1.0131,13.408563 -0.47674,6.555297 -0.95349,13.348969 -0.47675,6.734079 -1.01309,14.064093 -0.47675,7.270421 -1.07269,15.673121 z"
     style="font-style:normal;font-variant:normal;font-weight:normal;font-stretch:normal;font-family:Gabriola;-inkscape-font-specification:Gabriola;fill:url(#linearGradient4643);fill-opacity:1;stroke:#000000;stroke-width:9.76381874;stroke-linecap:round;stroke-miterlimit:4;stroke-dasharray:none;paint-order:stroke fill markers"
     id="path4572"
     inkscape:connector-curvature="0" /><path
     d="m 1038.0162,-32.941269 q 0,-4.707895 -1.5494,-8.164325 -1.5495,-3.456429 -4.0524,-5.661393 -2.5029,-2.204964 -5.6614,-3.277649 -3.1584,-1.072685 -6.3169,-1.072685 -4.2312,0 -7.1512,0.893904 -2.9201,0.893904 -4.7675,2.443338 -1.7878,1.549434 -2.6222,3.694804 -0.7747,2.085777 -0.7747,4.529115 0,2.860494 1.0131,5.780581 1.0727,2.860493 3.0989,5.601799 l -0.2384,0.65553 q -3.3968,1.668621 -6.8533,1.668621 -2.0261,0 -3.81394,-0.595936 -1.72822,-0.655529 -3.03928,-1.847402 -1.25146,-1.191872 -2.02618,-2.920087 -0.71512,-1.728215 -0.71512,-3.873585 0,-3.516023 1.66862,-6.614891 1.72821,-3.098868 4.52911,-5.661393 2.80089,-2.562526 6.49569,-4.588709 3.6948,-2.026182 7.628,-3.396836 3.9332,-1.430246 7.8664,-2.14537 3.9927,-0.774717 7.3896,-0.774717 6.2573,0 10.6672,1.668621 4.4695,1.668622 7.2108,4.886677 2.8009,3.158461 4.0524,7.687576 1.3111,4.529115 1.3111,10.250102 0,3.933178 -0.3576,8.641074 -0.298,4.707895 -0.7151,9.89254 -0.4172,5.125051 -0.7747,10.6076631 -0.298,5.48261248 -0.298,10.9056314 0,8.5814805 3.1585,12.9318145 3.218,4.29074 8.4027,4.29074 4.5887,0 10.2501,-3.396836 l 1.7282,2.562525 q -3.9928,3.992773 -8.7007,6.078549 -4.7079,2.085777 -9.8925,2.085777 -3.8736,0 -7.1513,-1.31106 -3.2776,-1.31106 -5.6614,-3.873585 -2.3837,-2.622119 -3.6948,-6.555297 -1.311,-3.933179 -1.311,-9.1178235 0,-1.5494339 0.06,-3.0988679 0.1192,-1.549434 0.4171,-3.2776488 h -0.3575 q -2.5626,5.1250509 -5.9594,10.1309142 -3.3372,4.94627 -7.3896,8.879449 -3.9928,3.873585 -8.5815,6.257329 -4.5291,2.443338 -9.535,2.443338 -4.1119,0 -7.50875,-1.430246 -3.39684,-1.430247 -5.84018,-3.933179 -2.38374,-2.502932 -3.75439,-5.899768 -1.31106,-3.456429 -1.31106,-7.508795 0,-5.2442381 1.90699,-9.5349783 1.96659,-4.2907402 5.36343,-7.6875762 3.45643,-3.3968361 8.22396,-5.8401745 4.7674,-2.502932 10.3692,-4.111959 5.6018,-1.668621 11.8592,-2.443338 6.2573,-0.834311 12.753,-0.834311 0.4172,-3.754398 0.6555,-7.270421 0.298,-3.516023 0.298,-7.74717 z m -36.5905,40.9408133 q 0,2.3241507 0.4768,4.4695207 0.5363,2.085777 1.609,3.694804 1.1323,1.609028 2.8009,2.562526 1.7282,0.893904 4.112,0.893904 2.6817,0 5.5422,-1.251466 2.8605,-1.251466 5.6018,-3.456429 2.8009,-2.204964 5.3038,-5.2442385 2.5625,-3.098868 4.5887,-6.7340784 2.0262,-3.63521049 3.3372,-7.6279826 1.3707,-4.0523658 1.7879,-8.2835125 -4.41,0.119187 -8.7603,0.595936 -4.3503,0.417156 -8.2835,1.370653 -3.8736,0.953498 -7.2108,2.5029322 -3.3373,1.5494339 -5.7806,3.8735849 -2.3838,2.2645573 -3.7544,5.42301886 -1.3707,3.09886794 -1.3707,7.21082734 z"
     style="font-style:normal;font-variant:normal;font-weight:normal;font-stretch:normal;font-family:Gabriola;-inkscape-font-specification:Gabriola;fill:url(#linearGradient4645);fill-opacity:1;stroke:#000000;stroke-width:9.76381874;stroke-linecap:round;stroke-miterlimit:4;stroke-dasharray:none;paint-order:stroke fill markers"
     id="path4574"
     inkscape:connector-curvature="0" /><path
     d="m 1084.4396,29.870401 -0.9535,-0.05959 q 0.4768,-5.661393 0.8939,-12.335878 0.4172,-6.674485 0.7748,-13.5277505 0.3575,-6.9128592 0.5959,-13.6469376 0.298,-6.7936719 0.4767,-12.6338459 0.2384,-5.899768 0.298,-10.54807 0.1192,-4.648302 0.1192,-7.330015 0,-2.204963 -0.1788,-3.813991 -0.1788,-1.609027 -0.8343,-2.681713 -0.5959,-1.072685 -1.7878,-1.549434 -1.1919,-0.536342 -3.2181,-0.536342 -1.013,0 -2.0857,0.119187 -1.0727,0.119187 -2.3838,0.357562 -1.311,0.238374 -2.9797,0.65553 -1.609,0.357561 -3.7544,0.893904 l -0.8939,-4.29074 q 9.8926,-3.575617 16.0307,-5.005864 6.1382,-1.48984 8.2835,-1.48984 3.9332,0 5.6018,2.324151 1.7282,2.264557 1.7282,6.793672 0,0.417155 -0.1191,2.443338 -0.1192,2.026183 -0.3576,5.303831 -0.1788,3.218056 -0.4767,7.508796 -0.298,4.29074 -0.7152,9.23701 -0.3575,4.886676 -0.8343,10.250102 -0.4767,5.3038314 -1.0131,10.607663 l 0.596,0.059594 q 2.8605,-11.680349 6.4361,-21.75167 3.6352,-10.130914 8.1047,-17.580116 4.5291,-7.449201 9.8925,-11.680348 5.4231,-4.29074 11.8592,-4.29074 2.2645,0 4.2311,0.715123 1.9666,0.715123 3.3969,2.026183 1.4302,1.251466 2.2645,3.039274 0.8343,1.728215 0.8343,3.813992 0,2.681712 -1.1918,5.184644 -1.1323,2.443338 -3.6353,4.350334 h -0.4767 q -2.5029,-2.085777 -4.7675,-2.979681 -2.205,-0.953498 -4.7079,-0.953498 -2.6817,0 -5.1846,1.013092 -2.503,1.013091 -4.5887,2.920087 -3.3969,3.098868 -6.317,8.223919 -2.9201,5.065457 -5.3634,11.263193 -2.3837,6.197736 -4.3503,13.0510015 -1.907,6.79367201 -3.3373,13.289376 -1.3706,6.4361095 -2.2645,12.1570965 -0.8343,5.661394 -1.1919,9.534979 z"
     style="font-style:normal;font-variant:normal;font-weight:normal;font-stretch:normal;font-family:Gabriola;-inkscape-font-specification:Gabriola;fill:url(#linearGradient4647);fill-opacity:1;stroke:#000000;stroke-width:9.76381874;stroke-linecap:round;stroke-miterlimit:4;stroke-dasharray:none;paint-order:stroke fill markers"
     id="path4576"
     inkscape:connector-curvature="0" /></g></g>
   <g
   id="_2301579271696"
   style="fill:#666666"
   transform="translate(61.713348)">
    
    
   <text
   xml:space="preserve"
   style="font-style:normal;font-weight:normal;font-size:63.41618347px;line-height:1.25;font-family:sans-serif;letter-spacing:0px;word-spacing:0px;fill:#ffffff;fill-opacity:1;stroke:none;stroke-width:1.58540463"
   x="312.57214"
   y="298.88821"
   id="text4589"><tspan
     sodipodi:role="line"
     id="tspan4587"
     x="312.57214"
     y="298.88821"
     style="font-style:normal;font-variant:normal;font-weight:normal;font-stretch:normal;font-family:Arial;-inkscape-font-specification:Arial;fill:#ffffff;stroke-width:1.58540463">0852 7509 3909</tspan></text>
<g
   id="g4627"
   transform="matrix(0.43456887,0,0,0.43456887,223.91533,236.48459)"><path
     id="path4601"
     d="m 54.532,138.45 2.235,1.324 c 9.387,5.571 20.15,8.518 31.126,8.523 h 0.023 c 33.707,0 61.139,-27.426 61.153,-61.135 0.006,-16.335 -6.349,-31.696 -17.895,-43.251 A 60.75,60.75 0 0 0 87.94,25.983 c -33.733,0 -61.166,27.423 -61.178,61.13 a 60.98,60.98 0 0 0 9.349,32.535 l 1.455,2.312 -6.179,22.558 z M 13.721,161.994 24.16,123.88 c -6.438,-11.154 -9.825,-23.808 -9.821,-36.772 0.017,-40.556 33.021,-73.55 73.578,-73.55 19.681,0.01 38.154,7.669 52.047,21.572 13.893,13.903 21.537,32.383 21.53,52.037 -0.018,40.553 -33.027,73.553 -73.578,73.553 h -0.032 c -12.313,-0.005 -24.412,-3.094 -35.159,-8.954 z m 0,0"
     inkscape:connector-curvature="0"
     style="fill:#b3b3b3;filter:url(#a)" /><path
     id="path4603"
     d="M 12.966,161.238 23.405,123.124 A 73.42,73.42 0 0 1 13.584,86.352 c 0.017,-40.556 33.021,-73.55 73.578,-73.55 19.681,0.01 38.154,7.669 52.047,21.572 13.893,13.903 21.537,32.383 21.53,52.037 -0.018,40.553 -33.027,73.553 -73.578,73.553 H 87.129 C 74.816,159.959 62.717,156.87 51.97,151.01 Z"
     inkscape:connector-curvature="0"
     style="fill:#ffffff" /><path
     id="path4605"
     d="m 87.184,25.227 c -33.733,0 -61.166,27.423 -61.178,61.13 a 60.98,60.98 0 0 0 9.349,32.535 l 1.455,2.312 -6.179,22.559 23.146,-6.069 2.235,1.324 c 9.387,5.571 20.15,8.518 31.126,8.524 h 0.023 c 33.707,0 61.14,-27.426 61.153,-61.135 A 60.75,60.75 0 0 0 130.419,43.156 60.75,60.75 0 0 0 87.184,25.227 Z"
     inkscape:connector-curvature="0"
     style="fill:url(#linearGradient1780)" /><path
     id="path4607"
     d="m 87.184,25.227 c -33.733,0 -61.166,27.423 -61.178,61.13 a 60.98,60.98 0 0 0 9.349,32.535 l 1.455,2.313 -6.179,22.558 23.146,-6.069 2.235,1.324 c 9.387,5.571 20.15,8.517 31.126,8.523 h 0.023 c 33.707,0 61.14,-27.426 61.153,-61.135 A 60.75,60.75 0 0 0 130.419,43.155 60.75,60.75 0 0 0 87.184,25.227 Z"
     inkscape:connector-curvature="0"
     style="fill:url(#b)" /><path
     id="path4609"
     d="M 68.772,55.603 C 67.394,52.542 65.944,52.48 64.635,52.427 l -3.524,-0.043 c -1.226,0 -3.218,0.46 -4.902,2.3 -1.684,1.84 -6.435,6.287 -6.435,15.332 0,9.045 6.588,17.785 7.506,19.013 0.918,1.228 12.718,20.381 31.405,27.75 15.529,6.124 18.689,4.906 22.061,4.6 3.372,-0.306 10.877,-4.447 12.408,-8.74 1.531,-4.293 1.532,-7.971 1.073,-8.74 -0.459,-0.769 -1.685,-1.226 -3.525,-2.146 -1.84,-0.92 -10.877,-5.367 -12.562,-5.981 -1.685,-0.614 -2.91,-0.919 -4.137,0.921 -1.227,1.84 -4.746,5.979 -5.819,7.206 -1.073,1.227 -2.144,1.381 -3.984,0.462 -1.84,-0.919 -7.76,-2.861 -14.784,-9.124 -5.465,-4.873 -9.154,-10.891 -10.228,-12.73 -1.074,-1.839 -0.114,-2.835 0.808,-3.751 0.825,-0.824 1.838,-2.147 2.759,-3.22 0.921,-1.073 1.224,-1.84 1.836,-3.065 0.612,-1.225 0.307,-2.301 -0.153,-3.22 -0.46,-0.919 -4.032,-10.011 -5.666,-13.647"
     inkscape:connector-curvature="0"
     style="fill:#ffffff;fill-rule:evenodd" /></g></g>
  </g>
 </g>
</svg>